<?xml version="1.0" standalone="no"?>
<!DOCTYPE svg PUBLIC "-//W3C//DTD SVG 20010904//EN"
 "http://www.w3.org/TR/2001/REC-SVG-20010904/DTD/svg10.dtd">
<svg version="1.0" xmlns="http://www.w3.org/2000/svg"
 width="400.000000pt" height="264.000000pt" viewBox="0 0 400.000000 264.000000"
 preserveAspectRatio="xMidYMid meet">

<g transform="translate(0.000000,264.000000) scale(0.100000,-0.100000)"
fill="white" stroke="none">
<path d="M2592 2365 c-28 -8 -63 -22 -77 -31 -14 -9 -40 -15 -62 -13 -130 9
-177 3 -238 -28 -71 -37 -157 -123 -187 -190 -17 -38 -22 -67 -23 -138 0 -82
3 -97 31 -153 17 -34 27 -62 23 -62 -3 0 -42 18 -85 40 -323 162 -685 97 -973
-175 -64 -61 -169 -185 -156 -185 3 0 32 23 64 51 157 138 344 248 501 295 87
27 108 29 250 29 167 0 251 -16 381 -70 70 -30 77 -31 56 -7 -62 68 -80 222
-38 317 40 92 139 173 234 195 38 8 61 7 112 -6 65 -16 65 -16 152 11 80 26
92 27 141 17 76 -16 135 -54 188 -120 121 -152 171 -338 129 -478 -32 -103
-123 -189 -250 -235 -46 -17 -83 -22 -155 -22 -85 0 -103 3 -167 31 -114 50
-176 39 -239 -44 -181 -237 -454 -394 -666 -382 -89 5 -94 -5 -10 -23 206 -42
541 102 723 311 28 33 59 62 69 65 9 3 50 -10 91 -30 155 -73 303 -70 474 11
300 141 360 469 147 796 -81 125 -190 205 -312 228 -64 12 -62 12 -128 -5z"/>
<path d="M600 1388 c0 -40 34 -204 56 -273 24 -74 103 -231 160 -316 66 -100
230 -262 334 -331 110 -72 237 -131 363 -167 412 -119 907 -28 1259 231 94 69
215 201 270 294 74 126 111 246 116 379 4 122 -5 159 -43 177 -53 24 -98 -32
-176 -217 -69 -163 -160 -272 -292 -350 -91 -53 -260 -91 -302 -68 -15 9 -10
16 42 51 32 22 76 57 97 78 78 78 130 179 110 212 -20 31 -47 24 -104 -27
-104 -93 -202 -124 -430 -137 -150 -8 -276 -29 -509 -86 -174 -42 -174 -42
-265 -30 -50 7 -110 19 -134 27 -200 71 -371 237 -502 488 -43 84 -50 93 -50
65z"/>
</g>
</svg>
